<?xml version="1.0" encoding="UTF-8"?>
<svg width="619px" height="200px" viewBox="0 0 619 200" version="1.1" xmlns="http://www.w3.org/2000/svg" xmlns:xlink="http://www.w3.org/1999/xlink">
    <!-- Generator: Sketch 59.1 (86144) - https://sketch.com -->
    <title>Logo</title>
    <desc>Created with Sketch.</desc>
    <g id="Logo" stroke="none" stroke-width="1" fill="none" fill-rule="evenodd">
        <rect fill="#FFFFFF" x="0" y="0" width="619" height="200"></rect>
        <g id="Centered" transform="translate(42.000000, 39.000000)">
            <rect id="Rectangle" x="0" y="0" width="535" height="122"></rect>
            <g id="Type" transform="translate(204.310741, 19.000000)" fill="#333333" fill-rule="nonzero">
                <path d="M245.686523,20.7685547 C247.10521,20.7685547 248.763979,20.8851761 250.662874,21.118422 L251.239746,21.1918945 C253.381358,21.4741225 254.750974,21.68164 255.348633,21.8144531 L274.772461,21.8144531 L274.772461,29.5341797 L266.056641,31.7753906 C267.650399,34.2656375 268.447266,37.0546721 268.447266,40.1425781 C268.447266,46.1191705 266.36379,50.7758622 262.196777,54.112793 C258.029764,57.4497237 252.244178,59.1181641 244.839844,59.1181641 L242.100586,58.96875 L239.859375,58.7197266 C238.29882,59.915045 237.518555,61.2431568 237.518555,62.7041016 C237.518555,64.8955188 240.307589,65.9912109 245.885742,65.9912109 L255.348633,65.9912109 C261.458038,65.9912109 266.11473,67.3027213 269.318848,69.9257812 C272.522965,72.5488412 274.125,76.4003652 274.125,81.4804688 C274.125,87.9883138 271.410672,93.0351383 265.981934,96.6210938 C260.553196,100.207049 252.75884,102 242.598633,102 C234.829063,102 228.894063,100.646986 224.793457,97.940918 C220.692851,95.2348498 218.642578,91.4414307 218.642578,86.5605469 C218.642578,83.2070145 219.688466,80.4013785 221.780273,78.1435547 C223.872081,75.8857309 226.943339,74.2753954 230.994141,73.3125 C229.433586,72.6484342 228.072271,71.5610427 226.910156,70.050293 C225.748041,68.5395432 225.166992,66.9375085 225.166992,65.2441406 C225.166992,63.11913 225.781244,61.3510813 227.009766,59.9399414 C228.238287,58.5288015 230.014637,57.1425849 232.338867,55.78125 C229.416978,54.5195249 227.101083,52.4941546 225.391113,49.7050781 C223.681144,46.9160017 222.826172,43.6289252 222.826172,39.84375 C222.826172,33.7675477 224.801738,29.0693525 228.75293,25.7490234 C232.704121,22.4286943 238.348596,20.7685547 245.686523,20.7685547 Z M249.47168,78.1933594 L241.602539,78.1933594 C238.813463,78.1933594 236.480966,78.8491145 234.60498,80.1606445 C232.728995,81.4721745 231.791016,83.2070205 231.791016,85.3652344 C231.791016,87.4570417 232.7954,89.10058 234.804199,90.2958984 C236.812998,91.4912169 239.626935,92.0888672 243.246094,92.0888672 C248.691433,92.0888672 252.957992,91.3418043 256.045898,89.8476562 C259.133805,88.3535082 260.677734,86.3115364 260.677734,83.7216797 C260.677734,81.6298724 259.764658,80.1855509 257.938477,79.3886719 C256.112296,78.5917929 253.290058,78.1933594 249.47168,78.1933594 Z M89.3496094,20.6689453 C96.8203499,20.6689453 102.547832,22.2958822 106.532227,25.5498047 C110.516621,28.8037272 112.508789,33.7509434 112.508789,40.3916016 L112.508789,77.4960938 L101.900391,77.4960938 L98.9619141,69.9257812 L98.5634766,69.9257812 C96.0068232,73.1465005 93.3755018,75.3793883 90.6694336,76.6245117 C87.9633654,77.8696351 84.4355686,78.4921875 80.0859375,78.4921875 C74.7402076,78.4921875 70.5317536,76.964859 67.4604492,73.9101562 C64.3891448,70.8554535 62.8535156,66.5058876 62.8535156,60.8613281 C62.8535156,54.9511423 64.9203895,50.5932757 69.0541992,47.7875977 C73.188009,44.9819196 79.4218333,43.429689 87.7558594,43.1308594 L97.4179688,42.8320312 L97.4179688,40.3916016 C97.4179688,34.7470421 94.5293258,31.9248047 88.7519531,31.9248047 C84.3027121,31.9248047 79.0732722,33.2695178 73.0634766,35.9589844 L68.0332031,25.6992188 C74.4414383,22.3456864 81.546836,20.6689453 89.3496094,20.6689453 Z M174.166992,21.8144531 L174.166992,54.3369141 C174.166992,58.3545123 174.880852,61.3676657 176.308594,63.3764648 C177.736335,65.385264 180.010727,66.3896484 183.131836,66.3896484 C187.381857,66.3896484 190.453116,64.970229 192.345703,62.1313477 C194.238291,59.2924663 195.18457,54.5859704 195.18457,48.0117188 L195.18457,21.8144531 L210.375,21.8144531 L210.375,77.4960938 L198.720703,77.4960938 L196.678711,70.3740234 L195.881836,70.3740234 C194.254875,72.9638801 191.947281,74.9643484 188.958984,76.3754883 C185.970688,77.7866281 182.567402,78.4921875 178.749023,78.4921875 C172.207975,78.4921875 167.27736,76.7407402 163.957031,73.237793 C160.636702,69.7348458 158.976562,64.6963219 158.976562,58.1220703 L158.976562,21.8144531 L174.166992,21.8144531 Z M306.74707,20.6689453 C314.217811,20.6689453 319.945293,22.2958822 323.929688,25.5498047 C327.914082,28.8037272 329.90625,33.7509434 329.90625,40.3916016 L329.90625,77.4960938 L319.297852,77.4960938 L316.359375,69.9257812 L315.960938,69.9257812 C313.404284,73.1465005 310.772963,75.3793883 308.066895,76.6245117 C305.360826,77.8696351 301.83303,78.4921875 297.483398,78.4921875 C292.137669,78.4921875 287.929215,76.964859 284.85791,73.9101562 C281.786606,70.8554535 280.250977,66.5058876 280.250977,60.8613281 C280.250977,54.9511423 282.31785,50.5932757 286.45166,47.7875977 C290.58547,44.9819196 296.819294,43.429689 305.15332,43.1308594 L314.81543,42.8320312 L314.81543,40.3916016 C314.81543,34.7470421 311.926787,31.9248047 306.149414,31.9248047 C301.700173,31.9248047 296.470733,33.2695178 290.460938,35.9589844 L285.430664,25.6992188 C291.838899,22.3456864 298.944297,20.6689453 306.74707,20.6689453 Z M15.4394531,4.68164062 L15.4394531,38.0009766 L21.515625,29.4345703 L41.2382812,4.68164062 L58.3710938,4.68164062 L32.9707031,36.9052734 L58.5703125,77.4960938 L41.0390625,77.4960938 L21.9638672,46.8164062 L15.4394531,51.4980469 L15.4394531,77.4960938 L0,77.4960938 L0,4.68164062 L15.4394531,4.68164062 Z M143.337891,0 L143.337891,77.4960938 L128.147461,77.4960938 L128.147461,0 L143.337891,0 Z M97.4179688,51.6972656 L91.5410156,51.8964844 C87.1249779,52.0292975 83.8379014,52.8261646 81.6796875,54.2871094 C79.5214736,55.7480542 78.4423828,57.9726413 78.4423828,60.9609375 C78.4423828,65.244162 80.8993895,67.3857422 85.8134766,67.3857422 C89.3330254,67.3857422 92.1469621,66.373057 94.2553711,64.3476562 C96.3637801,62.3222555 97.4179688,59.6328293 97.4179688,56.2792969 L97.4179688,51.6972656 Z M314.81543,51.6972656 L308.452452,51.9139741 C304.2805,52.0892357 301.155429,52.8802736 299.077148,54.2871094 C296.918935,55.7480542 295.839844,57.9726413 295.839844,60.9609375 C295.839844,65.244162 298.29685,67.3857422 303.210938,67.3857422 C306.730486,67.3857422 309.544423,66.373057 311.652832,64.3476562 C313.761241,62.3222555 314.81543,59.6328293 314.81543,56.2792969 L314.81543,56.2792969 L314.81543,51.6972656 Z M245.686523,29.9824219 C240.108371,29.9824219 237.319336,33.335904 237.319336,40.0429688 C237.319336,43.0644682 238.008294,45.4550693 239.38623,47.2148438 C240.764167,48.9746182 242.864244,49.8544922 245.686523,49.8544922 C248.542006,49.8544922 250.633782,48.9746182 251.961914,47.2148438 C253.290046,45.4550693 253.954102,43.0644682 253.954102,40.0429688 C253.954102,33.335904 251.19827,29.9824219 245.686523,29.9824219 Z" id="Kaluga"></path>
            </g>
            <g id="Fish" transform="translate(0.000000, 13.000000)">
                <g transform="translate(0.000000, 0.000000)">
                    <g id="Tail" transform="translate(99.999259, 0.000000)" fill-rule="nonzero">
                        <polygon id="4" fill="#0095D5" points="29.1666667 95 78.794815 95 53.9807408 52.4615871"></polygon>
                        <polygon id="3" fill="#3087DB" transform="translate(24.814074, 71.269206) scale(1, -1) translate(-24.814074, -71.269206) " points="2.84217094e-13 92.5384129 49.6281483 92.5384129 24.8140742 50"></polygon>
                        <polygon id="2" fill="#557CDF" points="2.4158453e-13 45 49.6281483 45 24.8140742 2.46158714"></polygon>
                        <polygon id="1" fill="#806EE3" transform="translate(53.980741, 21.269206) scale(1, -1) translate(-53.980741, -21.269206) " points="29.1666667 42.5384129 78.794815 42.5384129 53.9807408 2.13162821e-14"></polygon>
                    </g>
                    <g id="Head" transform="translate(0.000000, 6.000000)" fill-rule="nonzero">
                        <polygon id="6" fill="#F88909" points="51.3333333 39 93.9614817 39 72.6474075 2.46158714"></polygon>
                        <polygon id="5" fill="#E47550" transform="translate(72.647408, 62.269206) scale(1, -1) translate(-72.647408, -62.269206) " points="72.6474075 44 51.3333333 80.5384129 93.9614817 80.5384129"></polygon>
                        <polygon id="4" fill="#C757BC" points="25.6666667 82.9999999 68.294815 82.9999999 46.9807408 46.461587"></polygon>
                        <polygon id="3" fill="#0095D5" transform="translate(21.314074, 62.269206) scale(1, -1) translate(-21.314074, -62.269206) " points="0 80.5384129 42.6281483 80.5384129 21.3140742 44"></polygon>
                        <polygon id="2" fill="#3087DB" points="7.10542736e-15 39 42.6281483 39 21.3140742 2.46158714"></polygon>
                        <polygon id="1" fill="#806EE3" transform="translate(46.980741, 18.269206) scale(1, -1) translate(-46.980741, -18.269206) " points="25.6666667 36.5384129 68.294815 36.5384129 46.9807408 -1.42108547e-14"></polygon>
                    </g>
                </g>
            </g>
        </g>
    </g>
</svg>